<svg width="71" height="71" viewBox="0 0 71 71" fill="none" xmlns="http://www.w3.org/2000/svg">
<g clip-path="url(#clip0_794_6286)">
<path d="M25.805 10.4011C26.3654 7.83994 29.5824 6.97793 31.3483 8.91581L42.5933 21.2561C43.0438 21.7506 43.6369 22.093 44.2906 22.2359L60.5999 25.8043C63.1612 26.3646 64.0232 29.5817 62.0852 31.3476L49.7452 42.5925C49.2504 43.0431 48.908 43.6362 48.7652 44.2899L45.1968 60.5992C44.6365 63.1605 41.4194 64.0225 39.6535 62.0845L28.4086 49.7445C27.9579 49.2497 27.3649 48.9073 26.7113 48.7644L10.4018 45.1961C7.84066 44.6357 6.97866 41.4187 8.91653 39.6528L21.2568 28.4078C21.7513 27.9572 22.0937 27.3642 22.2367 26.7106L25.805 10.4011Z" fill="url(#paint0_linear_794_6286)"/>
</g>
<defs>
<linearGradient id="paint0_linear_794_6286" x1="28.1246" y1="7.97131" x2="42.8773" y2="63.0291" gradientUnits="userSpaceOnUse">
<stop stop-color="#F07E34"/>
<stop offset="1" stop-color="#E2A0F0"/>
</linearGradient>
<clipPath id="clip0_794_6286">
<rect width="57" height="57" fill="white" transform="translate(0.595703 15.3477) rotate(-15)"/>
</clipPath>
</defs>
</svg>
