<svg width="64" height="64" viewBox="0 0 64 64" fill="none" xmlns="http://www.w3.org/2000/svg">
<g clip-path="url(#clip0_794_6291)">
<path fill-rule="evenodd" clip-rule="evenodd" d="M9.36221 18.915C7.5124 22.119 7.54564 25.8935 9.11858 28.9568C6.80639 31.5087 5.79738 35.1459 6.75492 38.7195C7.71243 42.2929 10.4049 44.9384 13.6833 45.9924C13.8527 49.4318 15.7111 52.7171 18.9151 54.567C22.1191 56.4167 25.8935 56.3835 28.9569 54.8107C31.5088 57.1229 35.146 58.1318 38.7195 57.1743C42.293 56.2167 44.9385 53.5244 45.9925 50.246C49.4318 50.0764 52.7172 48.218 54.5671 45.0141C56.4168 41.81 56.3835 38.0357 54.8108 34.9723C57.1229 32.4204 58.1318 28.7831 57.1743 25.2096C56.2168 21.6361 53.5244 18.9906 50.2461 17.9367C50.0765 14.4974 48.2181 11.212 45.0142 9.36212C41.8101 7.51234 38.0357 7.54557 34.9724 9.11849C32.4205 6.80633 28.7832 5.79734 25.2097 6.75485C21.6361 7.71238 18.9907 10.4048 17.9368 13.6831C14.4974 13.8526 11.2121 15.7111 9.36221 18.915Z" fill="url(#paint0_linear_794_6291)"/>
</g>
<defs>
<linearGradient id="paint0_linear_794_6291" x1="44.6212" y1="1.55356" x2="20.2591" y2="49.2864" gradientUnits="userSpaceOnUse">
<stop stop-color="#FEF3EC"/>
<stop offset="1" stop-color="#F07E34"/>
</linearGradient>
<clipPath id="clip0_794_6291">
<rect width="52.198" height="52.198" fill="white" transform="translate(0 13.5098) rotate(-15)"/>
</clipPath>
</defs>
</svg>
