<svg width="86" height="86" viewBox="0 0 86 86" fill="none" xmlns="http://www.w3.org/2000/svg">
<g clip-path="url(#clip0_794_6289)">
<path d="M33.7631 76.5724C31.5357 75.9756 29.6334 74.8691 28.0561 73.2527C26.5217 71.7107 25.4411 69.8821 24.8142 67.7666C24.2618 65.608 24.2839 63.4152 24.8808 61.1876C25.6347 58.3741 26.9077 56.2024 28.6999 54.6721C30.492 53.1421 33.074 51.4778 36.4456 49.6799C38.9255 48.3968 40.3853 46.9344 40.8251 45.2932L41.2491 43.7108L39.6665 43.2867C37.8494 42.7998 34.8713 43.9494 30.7322 46.7355C26.6518 49.5373 22.3842 50.341 17.9294 49.1474C15.702 48.5505 13.7918 47.4735 12.1987 45.9158C10.6801 44.315 9.60734 42.4571 8.98053 40.3416C8.42798 38.1833 8.45021 35.9902 9.04702 33.7629C9.64385 31.5355 10.7133 29.6545 12.2552 28.1201C13.8715 26.5429 15.7296 25.4701 17.8294 24.9019C20.0035 24.2908 22.2043 24.2837 24.4317 24.8805C28.8279 26.0585 32.1003 28.8514 34.2489 33.2594C36.3975 37.6674 38.4389 40.1306 40.3733 40.6489L41.9559 41.073L42.3328 39.6662C42.7726 38.025 42.2395 36.0287 40.7334 33.6777L39.2059 31.2894C38.1017 29.5486 37.1855 27.5754 36.4571 25.3698C35.7445 23.1057 35.7494 20.6254 36.4719 17.9291C37.0687 15.7017 38.1381 13.8208 39.6801 12.2864C41.2964 10.7091 43.1545 9.63635 45.2543 9.06814C47.4284 8.45703 49.6292 8.4499 51.8566 9.04673C54.0839 9.64354 55.9571 10.7423 57.4758 12.3429C59.0529 13.9591 60.1259 15.8173 60.6941 17.9171C61.3207 20.0325 61.3356 22.204 60.7388 24.4314C59.5608 28.8276 56.7679 32.1 52.36 34.2486C47.9521 36.3972 45.489 38.4387 44.9707 40.373L44.5937 41.7798L46.0003 42.1567C47.9933 42.6907 50.9927 41.5782 54.9989 38.8194C58.9464 36.0448 63.1768 35.2622 67.6905 36.4717C69.9179 37.0685 71.7907 38.1671 73.3094 39.7677C74.9026 41.3255 75.9831 43.1542 76.5513 45.254C77.1782 47.3696 77.1853 49.5703 76.5727 51.8563C75.9759 54.0837 74.8694 55.9862 73.253 57.5633C71.711 59.0977 69.8531 60.1704 67.6788 60.7816C65.579 61.3498 63.4156 61.3354 61.1883 60.7385C58.4332 60.0003 56.2399 58.6904 54.6081 56.8082C53.0351 54.9417 51.3923 52.3969 49.6802 49.1738C48.3971 46.6939 46.9347 45.2342 45.2935 44.7944L43.8869 44.4176L43.4629 46C42.8817 48.1689 43.9942 51.1684 46.8 54.9986C49.6059 58.8289 50.3885 63.0593 49.1477 67.6899C48.5508 69.9175 47.4444 71.8198 45.8283 73.3973C44.2863 74.9317 42.4652 75.9828 40.3654 76.551C38.2498 77.1779 36.0492 77.185 33.7631 76.5724Z" fill="url(#paint0_linear_794_6289)"/>
</g>
<defs>
<linearGradient id="paint0_linear_794_6289" x1="51.8566" y1="9.04673" x2="33.7631" y2="76.5724" gradientUnits="userSpaceOnUse">
<stop stop-color="#DF99F7"/>
<stop offset="1" stop-color="#FFDBB0"/>
</linearGradient>
<clipPath id="clip0_794_6289">
<rect width="69.9078" height="69.9078" fill="white" transform="translate(18.0938) rotate(15)"/>
</clipPath>
</defs>
</svg>
