<svg width="260" height="279" viewBox="0 0 260 279" fill="none" xmlns="http://www.w3.org/2000/svg">
<g clip-path="url(#clip0_966_6702)">
<path d="M133.474 197.275C141.373 178.024 135.298 155.187 117.597 142.629C99.8968 130.071 76.3354 131.882 60.774 145.696C57.1279 148.933 51.9803 149.718 48.4442 147.21L18.8792 126.234C15.2274 123.643 14.4937 118.706 17.2549 115.532C49.9178 77.9796 106.383 70.6087 147.831 100.015C189.279 129.421 200.976 185.151 176.323 228.386C174.239 232.041 169.336 232.979 165.684 230.388L136.119 209.413C132.583 206.904 131.624 201.786 133.474 197.275ZM133.474 197.275L131.624 196.516L133.474 197.275C133.474 197.275 133.474 197.275 133.474 197.275Z" stroke="url(#paint0_linear_966_6702)" stroke-width="4"/>
</g>
<defs>
<linearGradient id="paint0_linear_966_6702" x1="186.417" y1="144.556" x2="96.8529" y2="192.935" gradientUnits="userSpaceOnUse">
<stop offset="0.0509862" stop-color="#FFB6E1"/>
<stop offset="1" stop-color="#FBE3EA"/>
</linearGradient>
<clipPath id="clip0_966_6702">
<rect width="200" height="200" fill="white" transform="translate(96.7266) rotate(35.3547)"/>
</clipPath>
</defs>
</svg>
